<?xml version="1.0" encoding="UTF-8" standalone="no"?>
<!-- Uploaded to: SVG Repo, www.svgrepo.com, Generator: SVG Repo Mixer Tools -->

<svg
   width="540.02338"
   height="482.31827"
   viewBox="0 0 21.600933 19.29273"
   enable-background="new 0 0 32 32"
   id="Editable-line"
   version="1.1"
   xml:space="preserve"
   sodipodi:docname="burger.svg"
   inkscape:version="1.4 (e7c3feb100, 2024-10-09)"
   inkscape:export-filename="burger.svg"
   inkscape:export-xdpi="96"
   inkscape:export-ydpi="96"
   xmlns:inkscape="http://www.inkscape.org/namespaces/inkscape"
   xmlns:sodipodi="http://sodipodi.sourceforge.net/DTD/sodipodi-0.dtd"
   xmlns="http://www.w3.org/2000/svg"
   xmlns:svg="http://www.w3.org/2000/svg"><defs
     id="defs1" /><sodipodi:namedview
     id="namedview1"
     pagecolor="#ffffff"
     bordercolor="#000000"
     borderopacity="0.25"
     inkscape:showpageshadow="2"
     inkscape:pageopacity="0.0"
     inkscape:pagecheckerboard="0"
     inkscape:deskcolor="#d1d1d1"
     inkscape:zoom="1.05375"
     inkscape:cx="343.53499"
     inkscape:cy="278.52906"
     inkscape:window-width="1920"
     inkscape:window-height="1052"
     inkscape:window-x="0"
     inkscape:window-y="0"
     inkscape:window-maximized="1"
     inkscape:current-layer="Editable-line"><inkscape:page
       x="0"
       y="0"
       width="21.600933"
       height="19.29273"
       id="page2"
       margin="0"
       bleed="0" /></sodipodi:namedview><path
     style="fill:#ffffff;fill-opacity:1;stroke:#f16122;stroke-width:1.67376;stroke-dasharray:none;stroke-opacity:1"
     d="M 1.467231,4.0655449 C 1.0946411,3.8373917 0.83545411,3.1966635 0.83689011,2.5073003 0.83829011,1.812068 1.0314191,1.2793622 1.3864721,0.99101801 L 1.57627,0.83687961 h 9.224198 9.2242 l 0.189798,0.1541384 c 0.355052,0.28834419 0.548133,0.82104999 0.549582,1.51628229 0.0015,0.7089862 -0.294141,1.4046155 -0.67391,1.5857994 -0.09567,0.04564 -3.105644,0.066648 -9.30865,0.064959 -7.696597,-0.00212 -9.190841,-0.01694 -9.314257,-0.092512 z"
     id="path1" /><path
     style="fill:#ffffff;fill-opacity:1;stroke:#f16122;stroke-width:1.67376;stroke-dasharray:none;stroke-opacity:1"
     d="M 1.3758361,11.258577 C 1.0302911,10.962776 0.83772411,10.42787 0.83772411,9.7638309 c 0,-0.664037 0.19256699,-1.198942 0.53811199,-1.4947438 L 1.572197,8.1009945 h 9.228271 9.228273 l 0.196361,0.1680926 c 0.345544,0.2958018 0.538112,0.8307068 0.538112,1.4947438 0,0.6640391 -0.192568,1.1989451 -0.538112,1.4947461 L 20.028741,11.42667 H 10.800468 1.572197 Z"
     id="path2" /><path
     style="fill:#ffffff;fill-opacity:1;stroke:#f16122;stroke-width:1.67376;stroke-dasharray:none;stroke-opacity:1"
     d="m 1.3864721,18.301708 c -0.355053,-0.288344 -0.54813299,-0.821049 -0.54958199,-1.516282 -0.0015,-0.708984 0.29414099,-1.404615 0.67390889,-1.585799 0.197102,-0.09404 18.382238,-0.09404 18.579339,0 0.379769,0.181184 0.675387,0.876815 0.67391,1.585799 -0.0014,0.695233 -0.19453,1.227938 -0.549582,1.516282 l -0.189798,0.154144 h -9.2242 -9.224198 z"
     id="path3" /></svg>
