<?xml version="1.0" encoding="UTF-8" standalone="no"?>
<!-- Uploaded to: SVG Repo, www.svgrepo.com, Generator: SVG Repo Mixer Tools -->

<svg
   width="498.17926"
   height="498.18362"
   viewBox="0 0 19.92717 19.927345"
   enable-background="new 0 0 32 32"
   id="Editable-line"
   version="1.1"
   xml:space="preserve"
   sodipodi:docname="burger.svg"
   inkscape:version="1.4 (e7c3feb100, 2024-10-09)"
   xmlns:inkscape="http://www.inkscape.org/namespaces/inkscape"
   xmlns:sodipodi="http://sodipodi.sourceforge.net/DTD/sodipodi-0.dtd"
   xmlns="http://www.w3.org/2000/svg"
   xmlns:svg="http://www.w3.org/2000/svg"><defs
     id="defs1" /><sodipodi:namedview
     id="namedview1"
     pagecolor="#ffffff"
     bordercolor="#000000"
     borderopacity="0.25"
     inkscape:showpageshadow="2"
     inkscape:pageopacity="0.0"
     inkscape:pagecheckerboard="0"
     inkscape:deskcolor="#d1d1d1"
     inkscape:zoom="1.05375"
     inkscape:cx="343.53499"
     inkscape:cy="278.52906"
     inkscape:window-width="1920"
     inkscape:window-height="1052"
     inkscape:window-x="0"
     inkscape:window-y="0"
     inkscape:window-maximized="1"
     inkscape:current-layer="Editable-line" /><path
     style="fill:#f16122;fill-opacity:1;stroke-width:0.0379597"
     d="M 0.63034694,1.8794702 C 0.25775694,1.7466574 -0.00143006,1.373677 5.9372166e-6,0.972385 0.00140594,0.5676766 0.19453494,0.2575782 0.54958794,0.089727 L 0.73938594,0 H 9.9635849 19.187785 l 0.189798,0.089727 c 0.355052,0.1678512 0.548133,0.4779496 0.549582,0.882658 0.0015,0.4127148 -0.294141,0.8176544 -0.67391,0.9231252 -0.09567,0.02657 -3.105644,0.038797 -9.3086501,0.037813 -7.696598,-0.00122 -9.19084196,-0.00986 -9.31425796,-0.053853 z"
     id="path1" /><path
     style="fill:#f16122;fill-opacity:1;stroke-width:0.0379597"
     d="M 0.53895194,10.833792 C 0.19340694,10.6616 8.3993722e-4,10.350221 8.3993722e-4,9.9636707 c 0,-0.386549 0.19256700278,-0.697928 0.53811200278,-0.87012 l 0.196361,-0.09785 H 9.9635849 19.191858 l 0.196361,0.09785 c 0.345544,0.172192 0.538112,0.483571 0.538112,0.87012 0,0.3865503 -0.192568,0.6979293 -0.538112,0.8701213 l -0.196361,0.09785 H 9.9635849 0.73531294 Z"
     id="path2" /><path
     style="fill:#f16122;fill-opacity:1;stroke-width:0.0379597"
     d="M 0.54958794,19.837615 C 0.19453494,19.669764 0.00145494,19.359666 5.9372166e-6,18.954957 -0.00149406,18.542243 0.29414694,18.137303 0.67391494,18.031832 c 0.197102,-0.05474 18.38223906,-0.05474 18.57934006,0 0.379769,0.105471 0.675387,0.510411 0.67391,0.923125 -0.0014,0.404709 -0.19453,0.714807 -0.549582,0.882658 l -0.189798,0.08973 H 9.9635849 0.73938594 Z"
     id="path3" /></svg>
